<svg width="24" height="24" viewBox="0 0 24 24" fill="none" xmlns="http://www.w3.org/2000/svg">
<path d="M19.7695 11.6453C19.039 10.7923 18.7071 10.0531 18.7071 8.79716V8.37013C18.7071 6.73354 18.3304 5.67907 17.5115 4.62459C16.2493 2.98699 14.1244 2 12.0442 2H11.9558C9.91935 2 7.86106 2.94167 6.577 4.5128C5.71333 5.58842 5.29293 6.68822 5.29293 8.37013V8.79716C5.29293 10.0531 4.98284 10.7923 4.23049 11.6453C3.67691 12.2738 3.5 13.0815 3.5 13.9557C3.5 14.8309 3.78723 15.6598 4.36367 16.3336C5.11602 17.1413 6.17846 17.6569 7.26375 17.7466C8.83505 17.9258 10.4063 17.9933 12.0005 17.9933C13.5937 17.9933 15.165 17.8805 16.7372 17.7466C17.8215 17.6569 18.884 17.1413 19.6363 16.3336C20.2118 15.6598 20.5 14.8309 20.5 13.9557C20.5 13.0815 20.3231 12.2738 19.7695 11.6453Z" fill="white"/>
<path opacity="0.4" d="M14.0088 19.2285C13.5088 19.1217 10.4627 19.1217 9.96275 19.2285C9.53539 19.3272 9.07324 19.5568 9.07324 20.0604C9.09809 20.5408 9.37935 20.9648 9.76895 21.2337L9.76795 21.2347C10.2718 21.6275 10.8632 21.8773 11.4824 21.9669C11.8123 22.0122 12.1482 22.0102 12.4901 21.9669C13.1083 21.8773 13.6997 21.6275 14.2036 21.2347L14.2026 21.2337C14.5922 20.9648 14.8734 20.5408 14.8983 20.0604C14.8983 19.5568 14.4361 19.3272 14.0088 19.2285Z" fill="white"/>
<path d="M7.71429 9.1875C7.71429 7.98129 8.8358 7 10.2143 7H16.2857V4.1875C16.2857 3.66973 15.806 3.25 15.2143 3.25H11.6156C11.1208 2.50352 10.1981 2 9.14286 2C8.08763 2 7.16491 2.50352 6.67009 3.25H3.07143C2.47969 3.25 2 3.66973 2 4.1875V17.3125C2 17.8303 2.47969 18.25 3.07143 18.25H7.71429V9.1875ZM9.14286 3.5625C9.7346 3.5625 10.2143 3.98223 10.2143 4.5C10.2143 5.01777 9.7346 5.4375 9.14286 5.4375C8.55112 5.4375 8.07143 5.01777 8.07143 4.5C8.07143 3.98223 8.55112 3.5625 9.14286 3.5625ZM17.3571 13.25H22V21.0625C22 21.5803 21.5203 22 20.9286 22H10.2143C9.62254 22 9.14286 21.5803 9.14286 21.0625V9.1875C9.14286 8.66973 9.62254 8.25 10.2143 8.25H16.2857V12.3125C16.2857 12.8281 16.7679 13.25 17.3571 13.25ZM22 11.7633V12H17.7143V8.25H17.9848C18.2689 8.25 18.5414 8.34877 18.7424 8.52457L21.6862 11.1004C21.8871 11.2762 22 11.5147 22 11.7633Z" fill="#6AACE8"/>
</svg>
