<svg width="20" height="20" viewBox="0 0 20 20" fill="none" xmlns="http://www.w3.org/2000/svg">
<path d="M5.71429 7.1875C5.71429 5.98129 6.8358 5 8.21429 5H14.2857V2.1875C14.2857 1.66973 13.806 1.25 13.2143 1.25H9.61563C9.1208 0.503516 8.19808 0 7.14286 0C6.08763 0 5.16491 0.503516 4.67009 1.25H1.07143C0.479688 1.25 0 1.66973 0 2.1875V15.3125C0 15.8303 0.479688 16.25 1.07143 16.25H5.71429V7.1875ZM7.14286 1.5625C7.7346 1.5625 8.21429 1.98223 8.21429 2.5C8.21429 3.01777 7.7346 3.4375 7.14286 3.4375C6.55112 3.4375 6.07143 3.01777 6.07143 2.5C6.07143 1.98223 6.55112 1.5625 7.14286 1.5625ZM15.3571 11.25H20V19.0625C20 19.5803 19.5203 20 18.9286 20H8.21429C7.62254 20 7.14286 19.5803 7.14286 19.0625V7.1875C7.14286 6.66973 7.62254 6.25 8.21429 6.25H14.2857V10.3125C14.2857 10.8281 14.7679 11.25 15.3571 11.25ZM20 9.76332V10H15.7143V6.25H15.9848C16.2689 6.25 16.5414 6.34877 16.7424 6.52457L19.6862 9.10039C19.8871 9.27621 20 9.51467 20 9.76332Z" fill="#317ACC"/>
</svg>
