<svg xmlns="http://www.w3.org/2000/svg" fill="#000000" class="bi bi-book" viewBox="0 0 16 16" id="Book--Streamline-Bootstrap.svg" height="16" width="16"><desc>Book Streamline Icon: https://streamlinehq.com</desc><path d="M1.14 3.4725C2.0073 3.1099 3.2509 2.7189 4.4602 2.5974C5.7636 2.4661 6.8691 2.6591 7.51 3.3344V12.8854C6.5937 12.366 5.4324 12.2945 4.3613 12.4023C3.2049 12.5199 2.0387 12.8541 1.14 13.1971ZM8.49 3.3344C9.1309 2.6591 10.2364 2.4661 11.5398 2.5974C12.7491 2.7189 13.9927 3.1099 14.86 3.4725V13.1971C13.9604 12.8541 12.7951 12.5189 11.6387 12.4033C10.5666 12.2945 9.4063 12.3651 8.49 12.8854ZM8 2.4484C7.0347 1.6184 5.6353 1.4949 4.3613 1.6223C2.8775 1.7722 1.3801 2.2809 0.4471 2.7052C0.2723 2.7847 0.1601 2.959 0.16 3.1511V13.9311C0.1601 14.2874 0.5285 14.5245 0.8529 14.377C1.7172 13.985 3.1098 13.5136 4.4593 13.3774C5.8401 13.2382 6.9975 13.4627 7.6178 14.2369C7.814 14.4813 8.186 14.4813 8.3822 14.2369C9.0025 13.4627 10.1599 13.2382 11.5398 13.3774C12.8902 13.5136 14.2838 13.985 15.1471 14.377C15.4715 14.5245 15.8399 14.2874 15.84 13.9311V3.1511C15.8399 2.959 15.7277 2.7847 15.5529 2.7052C14.6199 2.2809 13.1225 1.7722 11.6387 1.6223C10.3647 1.4939 8.9653 1.6184 8 2.4484" stroke-width="1"></path></svg>