<svg width="25" height="23" viewBox="0 0 25 23" fill="none" xmlns="http://www.w3.org/2000/svg">
<path d="M8.75 0.5C7.0924 0.5 5.50269 1.15848 4.33058 2.33058C3.15848 3.50269 2.5 5.0924 2.5 6.75C2.5 8.4076 3.15848 9.99732 4.33058 11.1694C5.50269 12.3415 7.0924 13 8.75 13C10.4076 13 11.9973 12.3415 13.1694 11.1694C14.3415 9.99732 15 8.4076 15 6.75C15 5.0924 14.3415 3.50269 13.1694 2.33058C11.9973 1.15848 10.4076 0.5 8.75 0.5ZM5 6.75C5 5.75544 5.39509 4.80161 6.09835 4.09835C6.80161 3.39509 7.75544 3 8.75 3C9.74456 3 10.6984 3.39509 11.4017 4.09835C12.1049 4.80161 12.5 5.75544 12.5 6.75C12.5 7.74456 12.1049 8.69839 11.4017 9.40165C10.6984 10.1049 9.74456 10.5 8.75 10.5C7.75544 10.5 6.80161 10.1049 6.09835 9.40165C5.39509 8.69839 5 7.74456 5 6.75ZM18.635 7.0225C18.2835 6.84338 17.8945 6.75 17.5 6.75V4.25C18.2894 4.25005 19.0676 4.43702 19.7708 4.79559C20.4741 5.15417 21.0825 5.67416 21.5462 6.31303C22.0099 6.95189 22.3157 7.69147 22.4386 8.47124C22.5616 9.25101 22.4982 10.0488 22.2536 10.7994C22.0089 11.5499 21.5901 12.2319 21.0313 12.7894C20.4725 13.347 19.7896 13.7644 19.0385 14.0073C18.2874 14.2503 17.4895 14.3119 16.71 14.1872C15.9305 14.0626 15.1916 13.7551 14.5537 13.29L16.0263 11.27C16.305 11.4729 16.6228 11.6159 16.9595 11.6901C17.2962 11.7643 17.6446 11.768 17.9829 11.7011C18.3211 11.6341 18.6418 11.4979 18.9249 11.301C19.2079 11.1042 19.4472 10.8509 19.6277 10.5571C19.8081 10.2632 19.9258 9.93529 19.9734 9.5938C20.021 9.25231 19.9975 8.90466 19.9043 8.57271C19.811 8.24075 19.6501 7.93167 19.4317 7.66489C19.2133 7.39811 18.942 7.1794 18.635 7.0225ZM22.4975 23C22.4972 21.6747 21.9705 20.4037 21.0334 19.4666C20.0963 18.5295 18.8253 18.0028 17.5 18.0025V15.5C19.489 15.5003 21.3965 16.2906 22.8029 17.6971C24.2094 19.1035 24.9997 21.011 25 23H22.4975ZM17.5 23H15C15 21.3424 14.3415 19.7527 13.1694 18.5806C11.9973 17.4085 10.4076 16.75 8.75 16.75C7.0924 16.75 5.50269 17.4085 4.33058 18.5806C3.15848 19.7527 2.5 21.3424 2.5 23H0C0 20.6794 0.921872 18.4538 2.56282 16.8128C4.20376 15.1719 6.42936 14.25 8.75 14.25C11.0706 14.25 13.2962 15.1719 14.9372 16.8128C16.5781 18.4538 17.5 20.6794 17.5 23Z" fill="white"/>
</svg>
