<svg width="20" height="20" viewBox="0 0 20 20" fill="none" xmlns="http://www.w3.org/2000/svg">
<path d="M0.535714 7.5H19.4643C19.7589 7.5 20 7.71094 20 7.96875V18.125C20 19.1602 19.0402 20 17.8571 20H2.14286C0.959821 20 0 19.1602 0 18.125V7.96875C0 7.71094 0.241071 7.5 0.535714 7.5ZM20 5.78125V4.375C20 3.33984 19.0402 2.5 17.8571 2.5H15.7143V0.46875C15.7143 0.210938 15.4732 0 15.1786 0H13.3929C13.0982 0 12.8571 0.210938 12.8571 0.46875V2.5H7.14286V0.46875C7.14286 0.210938 6.90179 0 6.60714 0H4.82143C4.52679 0 4.28571 0.210938 4.28571 0.46875V2.5H2.14286C0.959821 2.5 0 3.33984 0 4.375V5.78125C0 6.03906 0.241071 6.25 0.535714 6.25H19.4643C19.7589 6.25 20 6.03906 20 5.78125Z" fill="#317ACC"/>
</svg>
