<svg width="18" height="20" viewBox="0 0 18 20" fill="none" xmlns="http://www.w3.org/2000/svg">
<path d="M6.38171 18.7821V15.7152C6.3817 14.9381 6.96099 14.3067 7.67852 14.3018H10.3132C11.0339 14.3018 11.6182 14.9346 11.6182 15.7152V18.7732C11.6182 19.4473 12.1203 19.9951 12.7427 20H14.5401C15.3796 20.0023 16.1855 19.6428 16.7799 19.0007C17.3742 18.3586 17.7083 17.4868 17.7083 16.5775V7.86585C17.7083 7.13139 17.4077 6.43471 16.8875 5.9635L10.781 0.674268C9.7136 -0.250877 8.18905 -0.220992 7.15323 0.745384L1.17805 5.9635C0.633305 6.42082 0.307716 7.11956 0.291626 7.86585V16.5686C0.291626 18.4637 1.71006 20 3.45978 20H5.21623C5.51587 20.0023 5.80399 19.8751 6.01664 19.6464C6.2293 19.4178 6.34889 19.1067 6.34888 18.7821H6.38171Z" fill="#317ACC"/>
</svg>
