<svg width="107" height="67" viewBox="0 0 107 67" fill="none" xmlns="http://www.w3.org/2000/svg">
<path fill-rule="evenodd" clip-rule="evenodd" d="M50.3389 1.33967C48.1484 1.98461 46.2387 3.25617 44.4563 5.25638C41.8282 8.20534 40.7265 10.9048 40.5165 14.9105C40.3217 18.6225 41.1531 21.683 43.2011 24.7949C43.7225 25.5871 44.6101 26.6307 45.1734 27.114C45.7367 27.5976 46.2029 28.0547 46.2093 28.1303C46.2156 28.2056 45.8273 28.3988 45.3459 28.5595C43.7785 29.0825 40.4691 31.1474 38.641 32.7429C36.8962 34.2656 35.6499 35.646 34.3651 37.478L33.7308 38.3825L32.3568 36.835C30.8808 35.1724 28.6773 33.444 26.8611 32.5245C26.2415 32.2105 25.699 31.9271 25.6558 31.8946C25.6125 31.8621 26.0295 31.2773 26.5823 30.5948C30.3712 25.9178 30.2549 19.0288 26.3118 14.5877C20.3941 7.92218 10.3497 11.6244 8.94265 20.9895C8.43923 24.3411 9.48127 28.1043 11.6255 30.6764C12.1894 31.3533 12.6298 31.9176 12.6041 31.9303C12.5783 31.9433 12.0475 32.2061 11.4247 32.5145C7.2401 34.5864 3.63179 38.7816 1.73879 43.7753C0.857146 46.1016 0.757287 48.5028 1.47854 50.0366C2.03054 51.2103 3.04293 52.3487 4.11544 53.0016C4.92934 53.4972 5.08211 53.5037 17.1383 53.5695L29.3376 53.6363V56.0259C29.3376 57.4118 29.4593 58.8707 29.6275 59.5001C30.3259 62.114 32.2399 64.2916 34.6328 65.1949C35.8908 65.6696 36.2231 65.6782 53.5618 65.6782C73.24 65.6782 72.4905 65.735 74.6345 64.0789C75.9607 63.0546 77.1946 61.1896 77.6243 59.56C77.8067 58.8675 77.9288 57.4498 77.9288 56.0206V53.6363L90.1281 53.5695C102.184 53.5037 102.337 53.4972 103.151 53.0016C104.224 52.3487 105.236 51.2103 105.788 50.0366C106.509 48.5028 106.409 46.1016 105.528 43.7753C103.641 38.7971 99.8596 34.3969 95.8417 32.5034C95.2189 32.21 94.6881 31.9556 94.6623 31.9384C94.6366 31.921 95.0799 31.3496 95.6476 30.6687C97.7627 28.1312 98.8175 24.2931 98.3176 20.9545C96.9198 11.6204 86.863 7.93261 80.9547 14.5877C77.0369 19.0002 76.8922 25.9236 80.6215 30.5196C81.2087 31.2434 81.6539 31.8621 81.6107 31.8946C81.5674 31.9271 81.0249 32.2105 80.4053 32.5245C78.5891 33.444 76.3857 35.1724 74.9096 36.835L73.5357 38.3825L72.9013 37.478C71.6165 35.646 70.3702 34.2656 68.6255 32.7429C66.7973 31.1474 63.488 29.0825 61.9205 28.5595C61.4393 28.3988 61.0508 28.2056 61.0572 28.1303C61.0636 28.0547 61.5297 27.5976 62.093 27.114C62.6564 26.6307 63.544 25.5871 64.0653 24.7949C66.1133 21.683 66.9447 18.6225 66.75 14.9105C66.5402 10.9101 65.4427 8.2174 62.8102 5.24409C61.0028 3.20283 59.1547 1.9918 56.8328 1.32691C55.2911 0.885592 51.858 0.892319 50.3389 1.33967ZM57.2001 5.36747C59.7703 6.4913 62.2448 9.38598 63.014 12.1682C64.1586 16.3073 63.2493 20.5696 60.5816 23.5705C56.67 27.9707 50.608 27.9835 46.7108 23.5997C44.5769 21.1994 43.6135 18.3493 43.8063 15.0061C43.868 13.9335 44.1046 12.581 44.3669 11.8002C45.3595 8.84563 47.8869 6.15248 50.6004 5.15736C52.362 4.51126 55.4688 4.61028 57.2001 5.36747ZM22.3065 15.818C23.7278 16.6712 24.7599 17.8739 25.476 19.5107C25.8594 20.387 25.9401 20.9557 25.9393 22.775C25.9385 24.7344 25.8751 25.1138 25.3661 26.2036C24.629 27.7822 23.4233 29.0894 21.9583 29.8983C20.328 30.7986 18.0329 30.81 16.3415 29.9264C14.7242 29.0813 13.5992 27.8501 12.8246 26.0783C11.6094 23.298 12.0037 19.9629 13.816 17.6925C15.4891 15.5965 17.0298 14.8523 19.4598 14.9664C20.7499 15.0272 21.2266 15.1698 22.3065 15.818ZM91.1739 15.6721C92.661 16.4917 94.2466 18.4376 94.7391 20.0473C95.944 23.9858 94.3391 28.1426 90.9249 29.9264C89.2335 30.81 86.9384 30.7986 85.3081 29.8983C81.2158 27.6384 79.9349 21.9879 82.6156 18.0209C83.3896 16.8757 85.067 15.5441 86.2676 15.122C87.4513 14.7057 89.9231 14.9829 91.1739 15.6721ZM59.1306 31.4452C63.0679 32.6738 66.1218 34.7489 68.9913 38.1455C71.242 40.8099 72.5974 43.3296 73.6965 46.8936C74.5167 49.5535 74.519 49.5712 74.597 53.6994C74.6625 57.1629 74.6189 58.0043 74.3298 58.8568C73.9254 60.0498 72.6235 61.4025 71.5595 61.7353C70.5743 62.0437 36.7035 62.0472 35.7203 61.7392C34.7131 61.4236 33.4726 60.2035 33.0217 59.0852C32.4363 57.6335 32.4651 51.4348 33.0701 48.7412C34.9283 40.4646 40.6703 33.7652 47.7922 31.5644C50.3556 30.7724 51.1054 30.6801 54.2509 30.7694C56.6547 30.8376 57.6053 30.9693 59.1306 31.4452ZM22.2943 34.7311C25.5586 35.473 29.5657 38.2874 31.246 41.0184L31.8019 41.9221L31.0679 43.8344C30.6642 44.8861 30.1328 46.6818 29.8871 47.8247L29.4405 49.9026L17.7045 49.9047C6.5833 49.9065 5.93534 49.8838 5.33434 49.4712C4.53649 48.923 4.128 47.8562 4.30651 46.7855C4.51158 45.5533 6.14639 42.0624 7.17277 40.6647C8.81149 38.4326 11.4245 36.3259 13.6994 35.4022C16.2192 34.3793 19.588 34.1161 22.2943 34.7311ZM92.2385 34.9426C95.1275 35.8296 98.0718 37.963 100.021 40.581C101.103 42.0353 102.747 45.5046 102.96 46.7855C103.138 47.8562 102.73 48.923 101.932 49.4712C101.331 49.8838 100.681 49.9067 89.5592 49.9074L77.8203 49.9084L77.3822 47.8425C77.1413 46.7062 76.6111 44.9093 76.2043 43.8493L75.4645 41.9221L76.0204 41.0184C77.6488 38.3718 81.6485 35.5173 84.8263 34.7336C86.6217 34.2909 90.4695 34.3995 92.2385 34.9426Z" fill="url(#paint0_linear_236_725)" stroke="white" stroke-width="0.7"/>
<defs>
<linearGradient id="paint0_linear_236_725" x1="15.3093" y1="7.46784" x2="35.1142" y2="79.5661" gradientUnits="userSpaceOnUse">
<stop stop-color="#479CBB"/>
<stop offset="1" stop-color="#4E81BA"/>
</linearGradient>
</defs>
</svg>
