<svg width="75" height="83" viewBox="0 0 75 83" fill="none" xmlns="http://www.w3.org/2000/svg">
<path fill-rule="evenodd" clip-rule="evenodd" d="M36.6403 0.285614C36.4218 0.454454 35.7441 1.79413 34.9217 3.6828C34.1749 5.39769 33.5318 6.8009 33.4929 6.8009C33.3766 6.8009 28.127 7.63507 27.5755 7.74107C26.9259 7.86608 26.4694 8.37005 26.4652 8.9666C26.4626 9.34895 26.8967 9.8959 28.858 11.9816L31.2538 14.5297L30.6963 18.0863C30.0935 21.9328 30.1055 22.2835 30.851 22.5964C31.3419 22.8025 31.2757 22.832 34.5184 20.9495L37.2593 19.3582L39.9814 20.9503C43.193 22.8285 43.1371 22.8033 43.63 22.5964C44.3753 22.2837 44.3871 21.933 43.7819 18.0931L43.2222 14.5421L45.6211 11.9879C47.5858 9.89607 48.0193 9.34912 48.0162 8.9666C48.0114 8.36988 47.5549 7.86608 46.9055 7.74107C46.3459 7.63355 41.1036 6.8009 40.9853 6.8009C40.9447 6.8009 40.2982 5.39497 39.5485 3.67651C37.9551 0.0242011 37.5657 -0.429832 36.6403 0.285614ZM38.308 6.22338C38.8548 7.49834 39.4464 8.6403 39.6287 8.77211C39.8102 8.90341 41.0133 9.17672 42.3021 9.37936L44.6453 9.74812L42.8664 11.7166C41.3891 13.3517 41.088 13.7712 41.0895 14.1923C41.0904 14.4712 41.2523 15.7472 41.4493 17.0278L41.8075 19.3564L37.2516 16.7376L32.6719 19.3671L33.0308 17.0332C33.2282 15.7496 33.3906 14.4712 33.3915 14.1923C33.393 13.7712 33.0919 13.3517 31.6146 11.7166L29.8356 9.74812L32.1789 9.37936C33.4677 9.17672 34.6707 8.90341 34.8523 8.77211C35.0345 8.6403 35.6262 7.49834 36.173 6.22338C36.7177 4.95283 37.1982 3.91329 37.2405 3.91329C37.2828 3.91329 37.7632 4.95283 38.308 6.22338ZM10.0408 10.7501C9.86288 10.9602 9.12253 12.4699 8.39557 14.1048L7.07369 17.0774L3.81238 17.6124C0.959019 18.0804 0.516596 18.1944 0.275456 18.5229C0.124032 18.7296 0 19.0566 0 19.2499C0 19.4761 0.852992 20.5495 2.39355 22.262L4.78725 24.9228L4.22972 28.4601C3.67573 31.9752 3.67404 32.0003 3.96719 32.4359C4.48471 33.2046 4.85588 33.102 7.95869 31.3321L10.849 29.6833L13.6334 31.3212C15.1649 32.2222 16.6019 32.9592 16.8265 32.9592C17.2917 32.9592 17.8513 32.4252 17.8499 31.9825C17.8494 31.8189 17.6051 30.1565 17.3068 28.2881L16.7647 24.8909L19.1544 22.3066C21.6829 19.5724 21.8365 19.2973 21.2672 18.5212C21.0247 18.1906 20.5897 18.0783 17.7446 17.6121L14.4987 17.0801L13.0585 13.8791C12.2664 12.1185 11.5018 10.6083 11.3593 10.523C10.917 10.2584 10.3781 10.3513 10.0408 10.7501ZM63.0934 10.5293C62.9664 10.6124 62.2118 12.1265 61.4162 13.8939L59.97 17.1074L56.7996 17.5999C54.0826 18.022 53.5798 18.1461 53.2831 18.4689C52.6031 19.2084 52.7607 19.5031 55.3257 22.2929L57.7144 24.8909L57.1732 28.2881C56.8756 30.1565 56.6315 31.8189 56.6311 31.9825C56.6297 32.4212 57.1877 32.9592 57.6441 32.9592C57.8631 32.9592 59.3001 32.2315 60.8373 31.3421C62.3743 30.4527 63.7012 29.7456 63.7859 29.7709C63.8705 29.7961 65.1709 30.5287 66.6756 31.3989C69.6185 33.1005 69.9973 33.2029 70.5138 32.4359C70.8069 32.0003 70.8052 31.9752 70.2513 28.4601L69.6937 24.9228L72.0874 22.262C73.628 20.5495 74.481 19.4761 74.481 19.2499C74.481 19.0566 74.3529 18.724 74.1964 18.5106C73.9436 18.166 73.5517 18.0648 70.6689 17.6002L67.4261 17.0774L66.0458 14.008C65.2867 12.32 64.5493 10.8102 64.4071 10.6533C64.1292 10.3465 63.4681 10.284 63.0934 10.5293ZM11.9234 16.6464C12.7415 18.4675 13.0799 19.0567 13.3809 19.1845C13.5965 19.276 14.5346 19.4714 15.4656 19.6186C16.3966 19.7659 17.4007 19.9303 17.6969 19.984L18.2355 20.0815L16.4274 21.9802C14.905 23.5787 14.6195 23.9589 14.621 24.3849C14.622 24.6633 14.7843 25.942 14.9819 27.2264C15.1795 28.5109 15.3057 29.562 15.2624 29.562C15.219 29.562 14.2622 29.027 13.136 28.373C12.0097 27.719 10.9592 27.184 10.8013 27.184C10.6434 27.184 9.58666 27.719 8.45282 28.373C7.31899 29.027 6.35181 29.562 6.30349 29.562C6.25502 29.562 6.37182 28.5874 6.56294 27.3963C7.13386 23.8388 7.22342 24.1826 5.15134 21.9812L3.37196 20.0905L3.87886 19.995C4.1577 19.9426 5.18212 19.77 6.15545 19.6113C7.12878 19.4527 8.07011 19.2636 8.24738 19.1911C8.46575 19.1017 8.9094 18.2876 9.62251 16.667C10.2016 15.3513 10.7163 14.2747 10.7665 14.2747C10.8167 14.2747 11.3373 15.3419 11.9234 16.6464ZM64.8592 16.6689C65.5586 18.2579 66.0209 19.1104 66.2344 19.204C66.4112 19.2816 67.3522 19.469 68.3255 19.6203C69.2988 19.7717 70.3265 19.94 70.6092 19.9944L71.1233 20.0936L69.3396 21.954C67.2763 24.1065 67.3625 23.8111 67.8639 27.0141C68.0321 28.0885 68.1701 29.1071 68.1706 29.2778C68.1715 29.5347 67.8092 29.3806 66.0743 28.3861C64.9206 27.725 63.8503 27.184 63.6957 27.184C63.541 27.184 62.488 27.719 61.3557 28.373C60.2234 29.027 59.2616 29.562 59.2184 29.562C59.1751 29.562 59.3015 28.5111 59.4991 27.2264C60.0332 23.7537 60.1462 24.1678 58.0668 21.9834L56.2695 20.0949L57.2577 19.9128C57.8012 19.8126 58.8 19.646 59.4771 19.5424C61.4342 19.2429 61.3594 19.3132 62.5576 16.6464C63.1437 15.3419 63.6643 14.2747 63.7145 14.2747C63.7646 14.2747 64.2798 15.3521 64.8592 16.6689ZM35.3574 29.5559C31.8729 30.2593 28.8701 32.6755 27.3193 36.024C26.4058 37.996 26.093 39.4194 26.0888 41.622C26.0843 44.0184 26.2798 44.946 27.2662 47.2109C27.9125 48.6949 28.2246 49.1858 29.2142 50.2751C30.9939 52.2343 32.6234 53.2176 34.9814 53.7552C41.5484 55.2525 47.8628 49.9047 48.2715 42.4997C48.603 36.4945 45.1815 31.3515 39.7796 29.7358C38.9412 29.4849 36.2512 29.3755 35.3574 29.5559ZM39.2018 32.0253C41.4645 32.6142 43.7483 34.4672 44.9306 36.6733C46.6191 39.8242 46.5635 44.0041 44.7932 47.0104C43.1297 49.8352 40.6817 51.4171 37.7021 51.5922C34.901 51.7568 32.8446 50.8827 30.8476 48.6785C29.012 46.6524 28.1658 44.4524 28.1658 41.7069C28.1658 37.2276 31.113 33.0883 35.0535 32.0336C36.2225 31.7209 38.0179 31.7172 39.2018 32.0253ZM26.0837 58.6162C24.6898 58.8201 22.8961 59.5095 21.6552 60.3184C20.2417 61.2395 18.3925 63.2756 17.5777 64.8078C16.1148 67.5581 15.8075 69.7391 15.8795 76.8586L15.9272 81.5693L16.2906 81.8939C16.644 82.2096 17.2056 82.2183 37.2463 82.2183H57.8389L58.1578 81.7707C58.4646 81.3403 58.4768 81.1261 58.4768 76.1778C58.4768 70.9468 58.3238 68.6775 57.9253 67.9953C57.5978 67.4351 56.9963 67.3258 56.5014 67.7365C56.1623 68.0178 56.0989 68.1903 56.1345 68.7352C56.1582 69.0975 56.2161 71.7443 56.2633 74.6171L56.3492 79.8403H48.6281V76.9756C48.6281 74.3346 48.6031 74.076 48.3091 73.6634C47.9045 73.0955 47.2649 73.0722 46.8082 73.6088C46.4915 73.981 46.4737 74.1578 46.4737 76.9211V79.8403H27.8534V76.8677C27.8534 74.1216 27.83 73.8694 27.5456 73.5555C27.1028 73.0666 26.4081 73.1157 26.018 73.6634C25.7239 74.076 25.699 74.3346 25.699 76.9756V79.8403H17.9747L18.0407 74.702C18.1016 69.9543 18.133 69.4734 18.4528 68.3748C19.3714 65.2192 21.6672 62.5378 24.3382 61.5016C25.9663 60.8701 26.9296 60.8186 37.1782 60.8174C46.5232 60.8162 47.2115 60.7962 47.4362 60.5188C47.9233 59.9175 47.7825 58.9488 47.1626 58.6369C46.7029 58.4059 27.6503 58.3871 26.0837 58.6162ZM51.9297 60.8934C51.2375 61.6572 51.4205 62.0764 53.0775 63.5221C54.1549 64.4619 54.5493 64.5642 55.0622 64.0368C55.5984 63.4854 55.4976 62.8591 54.7451 62.0661C53.1816 60.4183 52.5851 60.1698 51.9297 60.8934Z" fill="url(#paint0_linear_236_721)"/>
<path fill-rule="evenodd" clip-rule="evenodd" d="M48.2629 58.6167C49.6568 58.8206 51.4505 59.51 52.6914 60.3189C54.1049 61.24 55.9541 63.2761 56.769 64.8083C58.2318 67.5586 58.5391 69.7396 58.4671 76.8591L58.4194 81.5698L58.0561 81.8944C57.7026 82.2102 57.1411 82.2188 37.1003 82.2188H16.5077L16.1888 81.7712C15.882 81.3408 15.8698 81.1266 15.8698 76.1783C15.8698 70.9473 16.0228 68.678 16.4214 67.9958C16.7488 67.4356 17.3504 67.3263 17.8453 67.737C18.1843 68.0183 18.2477 68.1908 18.2121 68.7357C18.1884 69.0981 18.1306 71.7448 18.0833 74.6176L17.9975 79.8408H25.7186V76.9761C25.7186 74.3352 25.7435 74.0765 26.0376 73.6639C26.4421 73.096 27.0817 73.0728 27.5384 73.6093C27.8551 73.9815 27.873 74.1583 27.873 76.9216V79.8408H46.4932V76.8683C46.4932 74.1221 46.5166 73.8699 46.801 73.556C47.2439 73.0671 47.9385 73.1162 48.3286 73.6639C48.6227 74.0765 48.6476 74.3352 48.6476 76.9761V79.8408H56.3719L56.3059 74.7026C56.245 69.9548 56.2136 69.474 55.8938 68.3753C54.9753 65.2197 52.6794 62.5383 50.0084 61.5021C48.3803 60.8706 47.417 60.8191 37.1685 60.8179C27.8234 60.8167 27.1351 60.7967 26.9104 60.5193C26.4234 59.918 26.5642 58.9493 27.184 58.6375C27.6437 58.4064 46.6963 58.3876 48.2629 58.6167ZM22.4169 60.8939C23.1091 61.6577 22.9261 62.0769 21.2691 63.5226C20.1917 64.4624 19.7973 64.5647 19.2844 64.0373C18.7483 63.4859 18.8491 62.8596 19.6016 62.0666C21.1651 60.4188 21.7615 60.1703 22.4169 60.8939Z" fill="url(#paint1_linear_236_721)"/>
<defs>
<linearGradient id="paint0_linear_236_721" x1="10.1245" y1="8.22188" x2="49.2416" y2="87.4834" gradientUnits="userSpaceOnUse">
<stop stop-color="#479CBB"/>
<stop offset="1" stop-color="#4E81BA"/>
</linearGradient>
<linearGradient id="paint1_linear_236_721" x1="10.1245" y1="8.22188" x2="49.2416" y2="87.4834" gradientUnits="userSpaceOnUse">
<stop stop-color="#479CBB"/>
<stop offset="1" stop-color="#4E81BA"/>
</linearGradient>
</defs>
</svg>
