<svg xmlns="http://www.w3.org/2000/svg" width="292.264" height="76.034" viewBox="0 0 292.264 76.034"><defs><style>.a{fill:#fff;}.b{fill:#3954ee;}</style></defs><g transform="translate(-170 -16.766)"><g transform="translate(170 16.766)"><path class="a" d="M557.8,178.626V213.5h1.72V180.567a6.32,6.32,0,0,0,.658,0,.466.466,0,0,1,.494.276q9.451,15.871,18.893,31.742a1.57,1.57,0,0,0,1.732.962,21.728,21.728,0,0,1,2.377-.019V178.645h-1.7V211.58a2.99,2.99,0,0,0-.452,0,.736.736,0,0,1-.844-.468q-7.132-12-14.289-23.978-2.445-4.1-4.892-8.2c-.074-.125-.218-.3-.321-.3C560.057,178.619,558.947,178.626,557.8,178.626Zm-70.615.022v34.87h1.716V196.553h22.457v16.955H513.1v-34.86h-1.755v16.166H488.884V178.648Zm39.948,18.017h18.591v-1.63H527.141v-14.7h19.57v-1.665h-21.3v34.841h21.308v-1.681h-19.57Zm110.242,0h18.578v-1.627H637.38V180.332h19.57v-1.671H635.629V213.5h21.325V211.83h-19.57Zm-11.816-6.8a16.128,16.128,0,0,0-3.372-6.516,14.632,14.632,0,0,0-5.884-4.171,16.291,16.291,0,0,0-6.837-1.014,14.909,14.909,0,0,0-7.238,2.268,16.394,16.394,0,0,0-6.994,9.23,21.619,21.619,0,0,0-.642,10.17,17.645,17.645,0,0,0,3.738,8.441,15.19,15.19,0,0,0,6.554,4.751,16.041,16.041,0,0,0,8.72.693,14.579,14.579,0,0,0,7.767-4.113,15.323,15.323,0,0,0,3.295-4.889c.359-.841.626-1.723.962-2.64-.526,0-.962.022-1.408,0-.356-.026-.517.074-.642.443a14.157,14.157,0,0,1-3.872,6.368,12.716,12.716,0,0,1-7.019,3.288,13.76,13.76,0,0,1-8.38-1.283,14.6,14.6,0,0,1-7.437-9.044,19.464,19.464,0,0,1-.735-7.751,17.159,17.159,0,0,1,2.345-7.4,13.475,13.475,0,0,1,5.9-5.454,13.864,13.864,0,0,1,13.2.465,12.169,12.169,0,0,1,4.094,3.808,14.7,14.7,0,0,1,1.941,4.013c.048.157.067.321.321.321.529-.006,1.055.01,1.617.01Z" transform="translate(-364.696 -155.402)"/><path class="a" d="M707.3,179.68h3.359c.115,0,.26.17.321.3q2.455,4.094,4.893,8.2,7.164,12,14.3,24.01c.212.356.427.542.844.468a2.971,2.971,0,0,1,.452,0V179.7h1.72v34.886a21.718,21.718,0,0,0-2.377.019,1.6,1.6,0,0,1-1.733-.962q-9.429-15.893-18.909-31.751a.465.465,0,0,0-.494-.276,6.314,6.314,0,0,1-.658,0v32.941H707.3Z" transform="translate(-514.191 -156.456)"/><path class="a" d="M487.17,179.75h1.684v16.166h22.457V179.75h1.755v34.86h-1.732V197.655H488.876V214.62H487.16Z" transform="translate(-364.675 -156.504)"/><path class="a" d="M608.049,197.774v15.162h19.57v1.681h-21.3V179.76h21.318v1.681h-19.57V196.16h18.588v1.63Z" transform="translate(-445.607 -156.51)"/><path class="a" d="M951.631,197.764v15.175H971.2v1.671H949.88V179.76h21.331v1.681h-19.57v14.706H970.22v1.627Z" transform="translate(-678.947 -156.51)"/><path class="a" d="M852.264,189.881c-.561,0-1.088-.016-1.6,0-.26,0-.279-.17-.321-.321a14.7,14.7,0,0,0-1.941-4.013,12.168,12.168,0,0,0-4.094-3.808,13.847,13.847,0,0,0-13.2-.465,13.475,13.475,0,0,0-5.9,5.454,17.161,17.161,0,0,0-2.345,7.4,19.47,19.47,0,0,0,.735,7.751,14.575,14.575,0,0,0,7.437,9.044,13.76,13.76,0,0,0,8.38,1.283,12.717,12.717,0,0,0,7.007-3.3,14.158,14.158,0,0,0,3.876-6.384.519.519,0,0,1,.642-.443c.439.029.882,0,1.408,0-.321.918-.594,1.8-.963,2.64a15.32,15.32,0,0,1-3.282,4.918,14.578,14.578,0,0,1-7.767,4.113,16.04,16.04,0,0,1-8.72-.693,15.192,15.192,0,0,1-6.554-4.751,17.644,17.644,0,0,1-3.75-8.441,21.621,21.621,0,0,1,.641-10.17,16.353,16.353,0,0,1,6.994-9.23,14.909,14.909,0,0,1,7.238-2.268,16.292,16.292,0,0,1,6.837,1.014,14.632,14.632,0,0,1,5.884,4.171A16.126,16.126,0,0,1,852.264,189.881Z" transform="translate(-591.395 -155.429)"/><path class="b" d="M146.165,145.2c13.224-2.644,36.2-13.041,36.2-13.041V124s-21.261,16.018-34.488,20.353c13.227-5.983,34.488-28.5,34.488-28.5V107.29s-26.259,37.731-38.5,37.731h0c-8.6,0-24.141-18.655-32.611-29.73-3.574-4.678-5.887-8-5.887-8v76.034s2.313-3.327,5.887-8.02c8.47-11.075,24.007-29.727,32.611-29.727h0c12.239,0,38.5,37.731,38.5,37.731v-8.547s-21.261-22.525-34.488-28.5c13.227,4.334,34.488,20.353,34.488,20.353v-8.155s-22.977-10.4-36.2-13.038c13.224.962,36.2,4.491,36.2,4.491V140.69S159.389,144.248,146.165,145.2Z" transform="translate(-105.37 -107.29)"/></g></g></svg>