<svg width="52" height="43" viewBox="0 0 52 33" fill="none" xmlns="http://www.w3.org/2000/svg">
<g id="Icon_Transparency">
<g id="Border" opacity="0.06">
<rect id="Shape" x="0.5" y="0.367676" width="51.259" height="31.6969" rx="14.4" fill="#317ACC"/>
</g>
<g id="Icon_Multiple_shape">
<path id="Path" fill-rule="evenodd" clip-rule="evenodd" d="M14.6877 7.96179H29.9434C30.9965 7.96179 31.8503 8.48974 31.8503 9.14099V18.5746C31.8503 19.2258 30.9965 19.7538 29.9434 19.7538H14.6877C13.6345 19.7538 12.7808 19.2258 12.7808 18.5746V9.14099C12.7808 8.48974 13.6345 7.96179 14.6877 7.96179ZM36.936 12.6786H37.5717C38.6248 12.6786 39.4786 13.2065 39.4786 13.8578V23.2914C39.4786 23.9426 38.6248 24.4706 37.5717 24.4706H22.316C21.2628 24.4706 20.4091 23.9426 20.4091 23.2914V22.8983H33.7577C35.513 22.8983 36.936 22.0184 36.936 20.933V12.6786Z" fill="#317ACC"/>
<path id="Path_2" d="M33.1217 10.3203H33.7573C34.8105 10.3203 35.6643 10.8483 35.6643 11.4995V20.9331C35.6643 21.5844 34.8105 22.1123 33.7573 22.1123H18.5017C17.4485 22.1123 16.5947 21.5844 16.5947 20.9331V20.54H29.9434C31.6987 20.54 33.1217 19.6601 33.1217 18.5747V10.3203Z" fill="#B4CCEF"/>
</g>
</g>
</svg>
