<svg width="64" height="37" viewBox="0 0 64 37" fill="none" xmlns="http://www.w3.org/2000/svg">
<g id="Icon">
<g id="Border" opacity="0.06">
<rect id="Shape" x="0.5" y="0.149414" width="63.4635" height="36.0818" rx="14.4" fill="#317ACC"/>
</g>
<g id="Workflow">
<path id="path" fill-rule="evenodd" clip-rule="evenodd" d="M32.5294 12.5973H24.7549V11.255H32.5294L31.3967 10.611C30.9356 10.3489 30.9356 9.9239 31.3967 9.66179C31.8577 9.39968 32.6051 9.39968 33.0661 9.66179L36.2141 11.4516C36.6751 11.7137 36.6751 12.1386 36.2141 12.4007L33.0661 14.1905C32.6051 14.4526 31.8577 14.4526 31.3967 14.1905C30.9356 13.9284 30.9356 13.5034 31.3967 13.2413L32.5294 12.5973ZM45.5625 17.7157L44.4298 18.3597V13.9396H42.0688V18.3597L40.936 17.7157C40.475 17.4536 39.7275 17.4536 39.2665 17.7157C38.8055 17.9778 38.8055 18.4028 39.2665 18.6649L42.4145 20.4547C42.645 20.5857 42.9471 20.6512 43.2493 20.6512C43.5514 20.6512 43.8535 20.5857 44.084 20.4547L47.232 18.6649C47.693 18.4028 47.693 17.9778 47.232 17.7157C46.771 17.4536 46.0235 17.4536 45.5625 17.7157ZM33.0662 25.7697L31.9334 25.1257H39.7079V23.7834H31.9334L33.0662 23.1393C33.5272 22.8772 33.5272 22.4523 33.0662 22.1902C32.6052 21.9281 31.8577 21.9281 31.3967 22.1902L28.2487 23.9799C27.7877 24.242 27.7877 24.667 28.2487 24.9291L31.3967 26.7189C31.8577 26.981 32.6052 26.981 33.0662 26.7189C33.5272 26.4568 33.5272 26.0318 33.0662 25.7697ZM18.9 18.6649L20.0328 18.0208V22.441H22.3937V18.0208L23.5265 18.6649C23.9875 18.927 24.735 18.927 25.196 18.6649C25.657 18.4028 25.657 17.9778 25.196 17.7157L22.048 15.9259C21.587 15.6638 20.8395 15.6638 20.3785 15.9259L17.2305 17.7157C16.7695 17.9778 16.7695 18.4028 17.2305 18.6649C17.6915 18.927 18.439 18.927 18.9 18.6649Z" fill="#B4CCEF"/>
<path id="path_2" fill-rule="evenodd" clip-rule="evenodd" d="M26.723 13.7159V10.1364C26.723 9.39505 25.666 8.79407 24.3621 8.79407H18.0661C16.7621 8.79407 15.7051 9.39505 15.7051 10.1364V13.7159C15.7051 14.4573 16.7621 15.0583 18.0661 15.0583H24.3621C25.666 15.0583 26.723 14.4573 26.723 13.7159ZM24.3621 21.3225H18.0661C16.7621 21.3225 15.7051 21.9235 15.7051 22.6648V26.2444C15.7051 26.9857 16.7621 27.5867 18.0661 27.5867H24.3621C25.666 27.5867 26.723 26.9857 26.723 26.2444V22.6648C26.723 21.9235 25.666 21.3225 24.3621 21.3225ZM46.3977 15.0583H40.1017C38.7978 15.0583 37.7407 14.4573 37.7407 13.7159V10.1364C37.7407 9.39505 38.7978 8.79407 40.1017 8.79407H46.3977C47.7016 8.79407 48.7587 9.39505 48.7587 10.1364V13.7159C48.7587 14.4573 47.7016 15.0583 46.3977 15.0583ZM37.7407 22.6648V26.2444C37.7407 26.9857 38.7978 27.5867 40.1017 27.5867H46.3977C47.7016 27.5867 48.7587 26.9857 48.7587 26.2444V22.6648C48.7587 21.9235 47.7016 21.3225 46.3977 21.3225H40.1017C38.7978 21.3225 37.7407 21.9235 37.7407 22.6648Z" fill="#317ACC"/>
</g>
</g>
</svg>
