<svg width="23" height="24" viewBox="0 0 23 24" fill="none" xmlns="http://www.w3.org/2000/svg">
<g id="Iconly/Bulk/Chart">
<g id="Chart">
<path id="Fill 1" opacity="0.4" d="M15.6232 2H6.87053C3.68094 2 1.87378 3.92889 1.87378 7.33333V16.6667C1.87378 20.0711 3.68094 22 6.87053 22H15.6232C18.8128 22 20.6116 20.0711 20.6116 16.6667V7.33333C20.6116 3.92889 18.8128 2 15.6232 2Z" fill="#317ACC"/>
<path id="Fill 4" d="M6.90365 9.36914C6.47892 9.36914 6.12915 9.74247 6.12915 10.2047V17.0758C6.12915 17.5291 6.47892 17.9025 6.90365 17.9025C7.3367 17.9025 7.68647 17.5291 7.68647 17.0758V10.2047C7.68647 9.74247 7.3367 9.36914 6.90365 9.36914Z" fill="#317ACC"/>
<path id="Fill 6" d="M11.2757 6.08887C10.851 6.08887 10.5012 6.4622 10.5012 6.92442V17.0755C10.5012 17.5289 10.851 17.9022 11.2757 17.9022C11.7088 17.9022 12.0585 17.5289 12.0585 17.0755V6.92442C12.0585 6.4622 11.7088 6.08887 11.2757 6.08887Z" fill="#317ACC"/>
<path id="Fill 8" d="M15.5897 12.9956C15.1567 12.9956 14.8069 13.3689 14.8069 13.8312V17.0756C14.8069 17.5289 15.1567 17.9023 15.5814 17.9023C16.0144 17.9023 16.3642 17.5289 16.3642 17.0756V13.8312C16.3642 13.3689 16.0144 12.9956 15.5897 12.9956Z" fill="#317ACC"/>
</g>
</g>
</svg>
