<svg width="72" height="75" viewBox="0 0 72 75" fill="none" xmlns="http://www.w3.org/2000/svg">
<rect width="72" height="75" rx="4" fill="#EFF2F5"/>
<path d="M48.5674 39.171C49.1858 40.3414 49.6705 41.629 49.9848 43C45.2786 43.0041 41.1613 45.5041 38.4609 49.2865C37.3316 47.7006 35.9556 46.3471 34.3867 45.3038C32.1329 43.805 29.5639 43.0029 26.9326 43C27.2468 41.629 27.7316 40.3414 28.35 39.171L37.8223 43.6083L38.4587 43.9064L39.095 43.6083L48.5674 39.171ZM38.4587 23.6562L54.1495 31L38.4582 38.344L24.7487 31.9361L23.6095 31.4036L23.61 31.3882L22.7728 30.9977L38.4587 23.6562ZM22.7072 56.5L23.0761 46.2391L23.4435 56.5H22.7072ZM38.4587 27.25C37.7152 27.25 36.9641 27.4207 36.347 27.7793C35.7622 28.119 35.0357 28.8077 35.0357 29.875C35.0357 30.9423 35.7622 31.6309 36.347 31.9707C36.9641 32.3293 37.7152 32.5 38.4587 32.5C39.2021 32.5 39.9532 32.3293 40.5703 31.9707C41.1551 31.6309 41.8816 30.9423 41.8816 29.875C41.8816 28.8077 41.1551 28.119 40.5703 27.7793C39.9532 27.4207 39.2021 27.25 38.4587 27.25Z" stroke="#001833" stroke-width="3"/>
</svg>
