<svg width="39" height="36" viewBox="0 0 39 36" fill="none" xmlns="http://www.w3.org/2000/svg">
<path d="M29.5674 17.171C30.1858 18.3414 30.6705 19.629 30.9848 21C26.2786 21.0041 22.1613 23.5041 19.4609 27.2865C18.3316 25.7006 16.9556 24.3471 15.3867 23.3038C13.1329 21.805 10.5639 21.0029 7.93259 21C8.2468 19.629 8.73159 18.3414 9.34997 17.171L18.8223 21.6083L19.4587 21.9064L20.095 21.6083L29.5674 17.171ZM19.4587 1.65616L35.1495 9L19.4582 16.344L5.74874 9.93611L4.60947 9.4036L4.61002 9.38822L3.7728 8.9977L19.4587 1.65616ZM3.70717 34.5L4.07608 24.2391L4.44347 34.5H3.70717ZM19.4587 5.25C18.7152 5.25 17.9641 5.42073 17.347 5.77927C16.7622 6.11905 16.0357 6.80771 16.0357 7.875C16.0357 8.94229 16.7622 9.63095 17.347 9.97073C17.9641 10.3293 18.7152 10.5 19.4587 10.5C20.2021 10.5 20.9532 10.3293 21.5703 9.97073C22.1551 9.63095 22.8816 8.94229 22.8816 7.875C22.8816 6.80771 22.1551 6.11905 21.5703 5.77927C20.9532 5.42073 20.2021 5.25 19.4587 5.25Z" stroke="#001833" stroke-width="3"/>
</svg>
