<svg width="20" height="20" viewBox="0 0 20 20" fill="none" xmlns="http://www.w3.org/2000/svg">
<path d="M17.5 0H2.5C1.83696 0 1.20107 0.351189 0.732233 0.976311C0.263392 1.60143 0 2.44928 0 3.33333L0 16.6667C0 17.5507 0.263392 18.3986 0.732233 19.0237C1.20107 19.6488 1.83696 20 2.5 20H17.5C18.163 20 18.7989 19.6488 19.2678 19.0237C19.7366 18.3986 20 17.5507 20 16.6667V3.33333C20 2.44928 19.7366 1.60143 19.2678 0.976311C18.7989 0.351189 18.163 0 17.5 0ZM6.25 15.8333H3.125C2.95924 15.8333 2.80027 15.7455 2.68306 15.5893C2.56585 15.433 2.5 15.221 2.5 15V14.1667C2.5 13.9457 2.56585 13.7337 2.68306 13.5774C2.80027 13.4211 2.95924 13.3333 3.125 13.3333H6.25V15.8333ZM11.25 15C11.25 15.221 11.1842 15.433 11.0669 15.5893C10.9497 15.7455 10.7908 15.8333 10.625 15.8333H7.5V13.3333H10.625C10.7908 13.3333 10.9497 13.4211 11.0669 13.5774C11.1842 13.7337 11.25 13.9457 11.25 14.1667V15ZM17.5 8.33333C17.5 8.77536 17.3683 9.19928 17.1339 9.51184C16.8995 9.8244 16.5815 10 16.25 10H3.75C3.41848 10 3.10054 9.8244 2.86612 9.51184C2.6317 9.19928 2.5 8.77536 2.5 8.33333V5C2.5 4.55797 2.6317 4.13405 2.86612 3.82149C3.10054 3.50893 3.41848 3.33333 3.75 3.33333H16.25C16.5815 3.33333 16.8995 3.50893 17.1339 3.82149C17.3683 4.13405 17.5 4.55797 17.5 5V8.33333Z" fill="#317ACC"/>
</svg>
