<svg width="76" height="84" viewBox="0 0 76 84" fill="none" xmlns="http://www.w3.org/2000/svg">
<path fill-rule="evenodd" clip-rule="evenodd" d="M47.8616 1.21899C44.0069 1.80172 40.7257 3.34289 37.6015 6.03813C30.6547 12.0313 27.8503 22.2682 30.609 31.5631C31.7724 35.4829 34.0427 39.2691 36.8011 41.8896C39.5659 44.5163 42.931 46.375 46.3197 47.1476C49.5795 47.8906 55.8496 47.8895 58.7652 47.1452L59.7 46.9067L62.6365 50.1231C65.4532 53.2084 65.5964 53.3396 66.1407 53.3362C66.7417 53.3324 67.2215 53.0094 67.4915 52.4268C67.6004 52.1916 67.6541 50.5053 67.6541 47.3158V42.5557L69.0794 41.0009C71.1404 38.7522 72.708 36.281 73.7337 33.6635C77.5536 23.9143 74.9578 12.5276 67.4358 6.03813C64.2583 3.29696 61.0245 1.79466 57.0412 1.20935C55.112 0.925851 49.7636 0.931473 47.8616 1.21899ZM57.8511 4.56667C63.4995 5.88426 68.138 9.8089 70.7204 15.4552C71.2997 16.7214 72.0751 19.3446 72.3284 20.8941C72.5703 22.3734 72.5696 26.3747 72.3274 27.8008C71.5069 32.6301 69.3795 36.5939 65.7621 40.0332L64.8162 40.9325L64.7716 44.4294L64.727 47.9261L62.707 45.7169L60.6868 43.5079L60.0591 43.586C59.7139 43.6289 58.7766 43.8308 57.9761 44.0344C56.6601 44.3693 56.1587 44.4053 52.737 44.4108C47.6394 44.4188 45.8191 44.0439 42.6755 42.3392C37.5128 39.5396 33.9837 34.47 32.7786 28.1221C32.4599 26.4436 32.4236 22.6481 32.7095 20.8941C33.7331 14.6131 37.4169 9.17765 42.6111 6.28372C43.8667 5.58421 46.2383 4.7448 47.5705 4.52828C48.1709 4.43079 48.8258 4.32028 49.0259 4.28269C49.94 4.11131 56.8526 4.33377 57.8511 4.56667ZM51.2816 12.5128C50.0346 12.9282 49.5119 13.2692 48.6286 14.2442C47.5561 15.4278 46.9398 16.9007 46.8659 18.457C46.813 19.567 46.8331 19.6605 47.2175 20.1033C47.75 20.7169 48.5249 20.7469 49.1378 20.1779C49.4823 19.8579 49.5934 19.5799 49.7237 18.7122C49.9199 17.4058 50.3994 16.5573 51.2538 16.0046C52.574 15.1507 54.151 15.3579 55.1771 16.5202C56.9475 18.5254 56.253 21.4659 53.7688 22.4838C51.7777 23.2997 51.4999 23.8873 51.4999 27.2819C51.4999 28.7578 51.565 29.8709 51.6657 30.1146C51.7568 30.3353 52.0582 30.6348 52.3356 30.7801C52.777 31.0112 52.9062 31.0166 53.3706 30.8239C54.2179 30.4723 54.4101 29.8618 54.4103 27.5197C54.4106 26.0529 54.4569 25.5521 54.5925 25.552C55.0774 25.5516 56.5946 24.5579 57.2667 23.8004C60.2828 20.4008 59.3738 14.9051 55.4653 12.9099C54.1074 12.2166 52.6004 12.0737 51.2816 12.5128ZM9.07712 29.188C8.51682 29.3181 7.44293 29.7527 6.69067 30.1538C5.55159 30.7611 5.11048 31.1154 4.05245 32.2732C2.97187 33.4559 2.68299 33.8915 2.11818 35.1894C0.974288 37.8182 1.00005 37.4182 1.00005 52.5366C1.00005 67.655 0.974288 67.2551 2.11818 69.8838C2.68299 71.1818 2.97187 71.6174 4.05245 72.8001C5.11135 73.9588 5.55057 74.3115 6.69067 74.9185C8.80614 76.045 9.5092 76.1481 15.0757 76.1481H19.8495L22.6131 79.2166C26.2677 83.2741 26.5809 83.5179 27.5289 83.0412C28.2631 82.6719 28.3602 82.2063 28.3602 79.0547V76.1481H35.934C44.6055 76.1481 44.861 76.12 47.1339 74.9124C48.2978 74.2942 48.7149 73.959 49.7706 72.7938C50.8254 71.6296 51.1306 71.1672 51.691 69.8838C52.7645 67.4255 52.8273 66.8235 52.7787 59.4702L52.737 53.1525L52.244 52.6666C51.828 52.2564 51.669 52.1948 51.2253 52.2727C50.8949 52.3306 50.5508 52.5471 50.2993 52.8548L49.8991 53.3449V59.5729C49.8991 66.4112 49.8643 66.7657 49.0113 68.6307C48.4526 69.852 47.1617 71.3063 46.1178 71.8902C44.3045 72.9043 44.944 72.843 35.2398 72.9331L26.329 73.016L25.9257 73.461C25.5424 73.884 25.5187 73.9983 25.4496 75.7591L25.3768 77.6118L23.4849 75.4977C22.4443 74.335 21.4637 73.2828 21.3058 73.1596C21.0729 72.9779 20.0138 72.9357 15.6971 72.9357C11.4534 72.9357 10.2067 72.8871 9.54326 72.6965C6.85061 71.9224 4.82872 69.6909 4.1274 66.7191C3.80374 65.3475 3.80374 39.7257 4.1274 38.3542C4.82872 35.3824 6.85061 33.1508 9.54326 32.3768C10.2312 32.1791 11.7565 32.1376 18.3467 32.1376H26.3181L26.7901 31.6721C27.1807 31.287 27.2622 31.0904 27.2622 30.5314C27.2622 29.9724 27.1807 29.7758 26.7901 29.3907L26.3181 28.9252L18.207 28.9384C11.657 28.9488 9.89981 28.997 9.07712 29.188ZM52.56 34.1798C52.0583 34.2839 51.4999 35.1247 51.4999 35.7764C51.4999 37.0152 53.0014 37.7723 53.81 36.9409C54.9373 35.7817 54.0702 33.8664 52.56 34.1798ZM9.80478 41.9267C8.87832 42.3453 8.63208 43.6857 9.33835 44.4654L9.73856 44.9071L20.8632 44.9501L31.9881 44.9933L32.4629 44.525C32.8566 44.1367 32.9379 43.9409 32.9379 43.3812C32.9379 42.8222 32.8564 42.6256 32.4658 42.2404L31.9939 41.775L21.0449 41.7851C15.0229 41.7907 9.96487 41.8545 9.80478 41.9267ZM9.80478 50.9216C8.87832 51.3402 8.63208 52.6806 9.33835 53.4602L9.73856 53.9019L25.5939 53.9442L41.4493 53.9864L41.9234 53.5188C42.3162 53.1316 42.3976 52.9355 42.3976 52.376C42.3976 51.8171 42.3161 51.6204 41.9255 51.2353L41.4535 50.7698L25.7747 50.7799C17.1513 50.7855 9.96487 50.8493 9.80478 50.9216ZM9.80478 59.9164C8.87832 60.335 8.63208 61.6754 9.33835 62.4551L9.73856 62.8968L22.6513 62.936C32.7591 62.9666 35.6431 62.9315 35.9279 62.7741C36.128 62.6635 36.4118 62.3025 36.5584 61.9719C36.817 61.3892 36.817 61.3525 36.5584 60.7698C36.4118 60.4392 36.128 60.0788 35.9279 59.9691C35.6459 59.8143 32.6994 59.7711 22.83 59.7772C15.8262 59.7815 9.96487 59.8441 9.80478 59.9164ZM40.5122 59.9105C39.5847 60.3487 39.3395 61.6756 40.0426 62.4514C40.3424 62.7824 40.5818 62.8895 41.0216 62.8895C42.714 62.8895 42.9101 60.1594 41.2399 59.853C40.9997 59.8088 40.6723 59.8347 40.5122 59.9105Z" fill="url(#paint0_linear_236_717)" stroke="white" stroke-width="0.2"/>
<defs>
<linearGradient id="paint0_linear_236_717" x1="11.1245" y1="9.22183" x2="50.2412" y2="88.483" gradientUnits="userSpaceOnUse">
<stop stop-color="#479CBB"/>
<stop offset="1" stop-color="#4E81BA"/>
</linearGradient>
</defs>
</svg>
