<svg width="20" height="20" viewBox="0 0 20 20" fill="none" xmlns="http://www.w3.org/2000/svg">
<path d="M0 18.5714C0 19.3603 0.447812 20 1 20H19C19.5522 20 20 19.3603 20 18.5714V8.28572C20 6.07658 18.2091 4.28571 16 4.28571H4C1.79086 4.28571 0 6.07658 0 8.28571V18.5714ZM14 9.28571C14 8.89107 14.2238 8.57143 14.5 8.57143H17.5C17.7763 8.57143 18 8.89107 18 9.28571V10.7143C18 11.1089 17.7763 11.4286 17.5 11.4286H14.5C14.2238 11.4286 14 11.1089 14 10.7143V9.28571ZM14 14.6429C14 14.4455 14.1119 14.2857 14.25 14.2857H17.75C17.8881 14.2857 18 14.4455 18 14.6429V15.3571C18 15.5545 17.8881 15.7143 17.75 15.7143H14.25C14.1119 15.7143 14 15.5545 14 15.3571V14.6429ZM2 10.3571C2 10.1598 2.11188 10 2.25 10H11.75C11.8881 10 12 10.1598 12 10.3571V11.0714C12 11.2688 11.8881 11.4286 11.75 11.4286H2.25C2.11188 11.4286 2 11.2688 2 11.0714V10.3571ZM2 14.6429C2 14.4455 2.11188 14.2857 2.25 14.2857H7.75C7.88812 14.2857 8 14.4455 8 14.6429V15.3571C8 15.5545 7.88812 15.7143 7.75 15.7143H2.25C2.11188 15.7143 2 15.5545 2 15.3571V14.6429ZM19.5 0H0.5C0.22375 0 0 0.319643 0 0.714286C0 1.89775 0.95939 2.85714 2.14286 2.85714H17.8571C19.0406 2.85714 20 1.89775 20 0.714286C20 0.319643 19.7763 0 19.5 0Z" fill="#317ACC"/>
</svg>
