<svg width="72" height="75" viewBox="0 0 72 75" fill="none" xmlns="http://www.w3.org/2000/svg">
<rect width="72" height="75" rx="4" fill="#F1F7E8"/>
<path d="M31.3527 32.031H28.7123V46.1739H31.3527V32.031Z" fill="#001833"/>
<path d="M39.274 32.031H36.6336V46.1739H39.274V32.031Z" fill="#001833"/>
<path d="M33.9932 20.4595C36.4562 20.4587 38.8941 20.9403 41.1621 21.8754C43.4301 22.8106 45.4818 24.1803 47.1954 25.9032V20.4595H49.8358V30.7452H39.2741V28.1738H45.7722C43.2988 25.4988 39.9415 23.7518 36.2833 23.236C32.6252 22.7203 28.897 23.4684 25.7462 25.3505C22.5954 27.2326 20.2208 30.1299 19.0347 33.5392C17.8487 36.9486 17.926 40.6548 19.2533 44.0144C20.5806 47.3741 23.0741 50.175 26.3008 51.9309C29.5275 53.6868 33.2838 54.2868 36.9174 53.6268C40.5511 52.9668 43.8327 51.0884 46.1925 48.3178C48.5523 45.5471 49.8413 42.0592 49.8358 38.4595H52.4762C52.4762 42.0195 51.3922 45.4996 49.3613 48.4597C47.3304 51.4198 44.4437 53.7269 41.0664 55.0893C37.6891 56.4517 33.9727 56.8081 30.3874 56.1136C26.802 55.4191 23.5087 53.7047 20.9238 51.1874C18.3389 48.67 16.5786 45.4627 15.8654 41.9711C15.1522 38.4794 15.5183 34.8602 16.9172 31.5712C18.3161 28.2821 20.6851 25.4709 23.7247 23.493C26.7642 21.5152 30.3377 20.4595 33.9932 20.4595Z" fill="#001833"/>
</svg>
