<svg width="57" height="88" viewBox="0 0 57 88" fill="none" xmlns="http://www.w3.org/2000/svg">
<path fill-rule="evenodd" clip-rule="evenodd" d="M24.7508 0.253118C23.1107 0.554822 21.5725 1.14572 19.9192 2.10909C15.9972 4.39491 13.2997 8.15945 12.0138 13.1416C11.6939 14.381 11.6701 14.8961 11.6113 21.8324C11.5495 29.1216 11.5528 29.2176 11.8973 30.2262C12.3599 31.5807 13.677 33.0517 14.8283 33.4997C15.569 33.7877 15.6589 33.88 15.8056 34.5031C16.5442 37.6387 18.4571 40.6731 20.8986 42.5818C21.5018 43.0533 21.8909 43.4813 21.8909 43.673C21.8909 44.0335 22.1657 43.9613 16.3609 45.1248C12.4114 45.9165 11.4814 46.2218 10.0825 47.1852C9.35903 47.6834 7.34696 49.8919 7.34696 50.1876C7.34696 50.2586 6.56221 49.9776 5.60325 49.5632C4.64413 49.1489 3.83483 48.8098 3.8048 48.8098C3.77462 48.8098 3.75006 50.8402 3.75006 53.3219V57.8339L2.81128 58.1198C1.70797 58.456 0.796233 59.2729 0.318628 60.3536C0.0227444 61.0235 -0.00290225 61.3915 0.000225481 64.9258C0.00335321 68.4235 0.0322842 68.8387 0.322694 69.5402C0.871299 70.8661 1.79429 71.683 2.99691 71.9074L3.67187 72.0334L3.75006 74.6543L3.82826 77.2751L16.0655 82.4873L28.3028 87.6995L40.54 82.4873L52.7773 77.2751L52.8555 74.6543L52.9337 72.0334L53.6086 71.9074C54.8112 71.683 55.7342 70.8661 56.2828 69.5402C56.5732 68.8387 56.6022 68.4235 56.6053 64.9258C56.6084 61.3915 56.5828 61.0235 56.2869 60.3536C55.8093 59.2729 54.8976 58.456 53.7943 58.1198L52.8555 57.8339V53.3035C52.8555 49.0584 52.8383 48.7806 52.5818 48.8905C52.4314 48.9551 51.6546 49.2831 50.8556 49.6194L49.4032 50.2306L48.3128 48.9342C46.3703 46.6248 45.3688 46.1519 40.2446 45.1248C34.4398 43.9613 34.7146 44.0335 34.7146 43.673C34.7146 43.4816 35.1006 43.0557 35.6959 42.5904C38.1917 40.6393 40.0413 37.7083 40.7993 34.5031C40.9466 33.8804 41.0369 33.7877 41.7772 33.4997C42.9159 33.0565 44.2459 31.5795 44.6979 30.2562C45.0272 29.2921 45.0361 29.0517 45.0343 21.1771C45.0329 14.6301 44.9889 12.9091 44.8039 12.1476C44.1877 9.61075 42.5915 7.45855 40.5238 6.37629C39.8662 6.0321 38.941 5.36581 38.4679 4.89552C34.4802 0.931739 29.7558 -0.667243 24.7508 0.253118ZM31.1959 3.40242C33.0674 4.05295 34.9078 5.23167 36.5606 6.83853C37.3956 7.65027 38.3198 8.40633 38.6144 8.51889C39.9859 9.04263 41.2577 10.2349 41.8875 11.5872C42.4099 12.7092 42.534 14.0914 42.534 18.7921C42.534 23.0355 42.5168 23.3115 42.2603 23.1975C42.1098 23.1307 41.793 22.9991 41.5565 22.9054C41.179 22.7557 41.1265 22.6457 41.1265 22.0049V21.2751L38.2724 21.1785C35.3406 21.0793 34.3149 20.892 32.7598 20.1723C30.9717 19.3448 29.3105 17.8774 27.8822 15.8636L27.1773 14.8696L25.7462 16.3796C23.8855 18.3429 23.1287 19.003 21.8909 19.7421C20.5493 20.5432 18.9299 21.015 17.0295 21.1584L15.4791 21.2754V22.0051C15.4791 22.6457 15.4265 22.7557 15.049 22.9054C14.8125 22.9991 14.4959 23.1307 14.3453 23.1975C14.0907 23.3104 14.0716 23.1055 14.0721 20.2597C14.0722 18.5771 14.1499 16.5064 14.2445 15.6584C14.9272 9.54461 19.0938 4.51313 24.612 3.1391C26.1029 2.76783 29.7949 2.91552 31.1959 3.40242ZM28.0866 20.2631C30.7878 22.743 33.816 23.9677 37.2473 23.9677H38.6507L38.5883 28.5506C38.5314 32.744 38.4957 33.2355 38.1703 34.3328C37.6075 36.231 36.816 37.6326 35.4978 39.065C34.182 40.4951 32.4861 41.5542 30.733 42.0408C29.5363 42.373 27.0692 42.373 25.8725 42.0408C22.3968 41.0762 19.5645 38.1407 18.4352 34.3328C18.1098 33.2358 18.0741 32.7436 18.0172 28.5611L17.955 23.9886L18.5546 23.878C21.4771 23.3389 24.0046 22.0185 26.0395 19.9677C26.4671 19.5368 26.8349 19.1812 26.8568 19.1774C26.8787 19.1736 27.4322 19.6622 28.0866 20.2631ZM15.4791 28.1651C15.4791 30.0579 15.4384 30.478 15.2551 30.478C14.9624 30.478 14.3962 29.5972 14.2075 28.8482C14.0062 28.0495 14.2868 26.9607 14.8541 26.3391C15.0986 26.0714 15.3393 25.8522 15.3888 25.8522C15.4384 25.8522 15.4791 26.893 15.4791 28.1651ZM42.1339 26.8865C42.5873 27.7318 42.5386 28.9097 42.0144 29.7773C41.2585 31.0287 41.1265 30.7859 41.1265 28.1442V25.8104L41.4783 26.0652C41.672 26.2053 41.9669 26.5749 42.1339 26.8865ZM26.8171 45.057C28.0973 45.243 29.9419 45.1505 31.0162 44.8461C31.3475 44.7523 31.649 44.709 31.6865 44.7499C31.7239 44.7909 30.9778 45.4594 30.0287 46.2353L28.3028 47.6464L26.5825 46.24C25.6364 45.4664 24.8623 44.794 24.8623 44.7458C24.8623 44.6975 25.0205 44.7069 25.2141 44.7666C25.4077 44.8262 26.129 44.9569 26.8171 45.057ZM24.5714 48.1425C25.5055 48.9061 26.2697 49.5825 26.2697 49.6456C26.2697 49.8135 23.7879 52.4889 23.7158 52.3986C23.5477 52.1877 22.0678 47.0277 22.1391 46.9011C22.3502 46.5268 23.0024 46.8596 24.5714 48.1425ZM34.4664 46.9011C34.5377 47.0277 33.0579 52.1877 32.8897 52.3986C32.7956 52.5165 30.328 49.778 30.3785 49.6118C30.4029 49.5315 31.16 48.8575 32.0606 48.1141C33.5691 46.8691 34.2536 46.5239 34.4664 46.9011ZM20.8336 51.9261C21.5833 54.3939 22.1641 56.4486 22.1244 56.4923C22.0435 56.5807 10.1677 51.572 9.93672 51.352C9.6926 51.1193 11.2244 49.6651 12.2875 49.1199C12.9683 48.771 14.1374 48.4369 16.0579 48.0423C17.5887 47.7279 18.9829 47.4636 19.156 47.4548C19.4311 47.4411 19.6419 48.0031 20.8336 51.9261ZM40.406 48.0288C42.5035 48.4502 43.6235 48.7639 44.3365 49.1294C45.3583 49.6533 46.8987 51.1375 46.6568 51.3652C46.4306 51.5778 34.5585 56.5771 34.4811 56.4923C34.3516 56.3502 37.13 47.4392 37.3038 47.4392C37.3965 47.4392 38.7926 47.7045 40.406 48.0288ZM30.8775 54.2861C32.2487 55.7903 33.3386 57.0501 33.2996 57.0854C33.2608 57.1208 32.1206 57.6184 30.7659 58.1913L28.3028 59.2328L25.8397 58.1913C24.4851 57.6184 23.3447 57.1208 23.3059 57.0854C23.2302 57.0167 28.165 51.5511 28.3028 51.5511C28.3478 51.5511 29.5065 52.7819 30.8775 54.2861ZM17.2384 57.5486L27.0517 61.7209V72.9302C27.0517 81.8291 27.0113 84.1219 26.8562 84.0539C26.7488 84.0068 22.4031 82.1561 17.1993 79.9412C11.9956 77.7263 7.43891 75.7821 7.07328 75.6211L6.40864 75.3281V73.3927V71.4574L7.0786 71.0272C8.00863 70.4301 9.17324 69.017 9.62379 67.9389C10.9673 64.7238 9.84117 60.7653 7.07328 58.9732L6.40864 58.5428V55.73V52.917L6.91689 53.1468C7.19636 53.2732 11.8412 55.2541 17.2384 57.5486ZM50.1969 55.7323V58.5428L49.5323 58.9732C46.7644 60.7653 45.6382 64.7238 46.9818 67.9389C47.4323 69.017 48.5969 70.4301 49.5269 71.0272L50.1969 71.4574V73.393C50.1969 74.7819 50.1417 75.3528 50.0014 75.4138C49.894 75.4607 45.3372 77.4048 39.8754 79.7341C34.4136 82.0634 29.8569 84.0075 29.7493 84.0544C29.5942 84.1219 29.5539 81.8289 29.5539 72.9304V61.7215L39.8363 57.3329C45.4917 54.9191 50.1364 52.9393 50.1578 52.933C50.1792 52.9268 50.1969 54.1864 50.1969 55.7323ZM5.03134 61.0041C5.9168 61.2947 6.928 62.3435 7.34383 63.4027C7.94545 64.9347 7.57575 66.8756 6.46212 68.031C5.52771 69.0004 3.73865 69.506 3.11091 68.9779C2.57279 68.5253 2.49897 68.0456 2.49897 65.0028C2.49897 61.2169 2.62127 60.8485 3.88831 60.8162C4.17935 60.8088 4.6937 60.8933 5.03134 61.0041ZM53.3958 60.909C53.9832 61.1561 54.1066 61.8664 54.1066 65.0028C54.1066 68.0456 54.0328 68.5253 53.4946 68.9779C53.1173 69.2954 52.0774 69.2308 51.2916 68.841C49.9104 68.1561 49.1261 66.9333 48.9866 65.2472C48.8024 63.0204 50.5475 60.8616 52.569 60.8157C52.8846 60.8085 53.2566 60.8506 53.3958 60.909Z" fill="url(#paint0_linear_236_707)"/>
<defs>
<linearGradient id="paint0_linear_236_707" x1="6.45502" y1="8.76995" x2="58.0735" y2="71.2871" gradientUnits="userSpaceOnUse">
<stop stop-color="#479CBB"/>
<stop offset="1" stop-color="#4E81BA"/>
</linearGradient>
</defs>
</svg>
