<svg width="66" height="88" viewBox="0 0 66 88" fill="none" xmlns="http://www.w3.org/2000/svg">
<path fill-rule="evenodd" clip-rule="evenodd" d="M27.6578 5.64203C18.4244 9.32242 13.3256 11.4379 12.9743 11.7344C11.3298 13.1223 11.1079 15.0128 12.2168 18.1872C12.2907 18.3985 12.1371 18.5889 11.6243 18.9212C10.2102 19.8381 8.93423 21.7326 8.50638 23.5507C7.6623 27.1372 9.12198 30.8085 12.0612 32.4915C13.2996 33.2005 13.8489 33.3295 17.4788 33.7636C20.3207 34.1036 20.6237 34.1724 21.1965 34.6071C22.1099 35.3004 23.989 36.3156 25.2111 36.7761C26.6698 37.3258 28.2244 37.6265 30.9041 37.8779L33.1721 38.0908L33.554 39.1556L33.936 40.2205L33.4155 40.68C32.6272 41.3758 32.2794 42.3222 31.7414 45.2351L31.2502 47.8936L29.246 48.8031C28.1437 49.3032 21.1428 52.4493 13.6884 55.7945C6.23408 59.1395 0.0858839 61.9308 0.0256258 61.9974C-0.110226 62.1477 0.666934 64.6031 0.850497 64.6031C0.924077 64.6031 4.66148 62.9753 9.15606 60.986C13.6506 58.9966 17.6542 57.2261 18.0527 57.0516L18.7777 56.7342L20.9544 63.9567C22.1515 67.9289 23.1059 71.2071 23.0749 71.2412C23.0441 71.2753 17.8696 73.6597 11.5761 76.5396C5.28265 79.4196 0.0796878 81.8314 0.013853 81.8993C-0.0518268 81.9673 0.122442 82.5718 0.401116 83.2426L0.907967 84.4625L2.22466 83.8587C2.94884 83.5267 6.57363 81.8643 10.2797 80.1648C13.9858 78.4652 21.6949 74.9305 27.4109 72.3101L37.8036 67.5454L40.9547 67.9622C42.6876 68.1915 44.1416 68.4187 44.1856 68.4674C44.2296 68.5161 44.7724 70.2693 45.3918 72.3635L46.518 76.1713L44.6794 78.2278C43.6683 79.3589 42.7174 80.5543 42.5662 80.8842C42.0679 81.9721 42.1988 83.2611 43.0444 85.5972C43.4538 86.7283 43.8019 87.6741 43.818 87.6992C43.8621 87.7677 64.865 78.6446 65.0079 78.4947C65.1638 78.3312 63.9888 74.8362 63.5058 74.0266C63.3068 73.6931 62.7759 73.2014 62.316 72.9243C61.5133 72.441 61.3949 72.421 58.7966 72.3269L56.1077 72.2295L55.0407 69.4018C54.4538 67.8465 53.9712 66.4958 53.9683 66.4004C53.9654 66.3051 55.2652 65.5078 56.8567 64.629C58.4482 63.7502 59.9704 62.8453 60.2397 62.6182C61.0366 61.9457 61.6082 60.5993 61.614 59.3818C61.6182 58.4471 61.2718 57.3183 58.0093 47.6365C54.1347 36.1377 53.816 35.2587 53.2957 34.6323C52.7185 33.9374 51.5155 33.4155 50.4867 33.4137C49.6748 33.4121 49.2211 33.577 46.6458 34.8095C44.9173 35.6366 43.6694 36.1437 43.5884 36.0521C43.5133 35.9667 43.309 35.4939 43.1344 35.0013L42.8173 34.1055L44.6624 31.7064C45.6772 30.3869 46.7119 28.9775 46.9616 28.5746C48.0144 26.8765 48.992 24.2486 49.3236 22.2246C49.4852 21.239 49.606 21.0323 51.5434 18.4282C53.8995 15.2611 54.1494 14.8426 54.5097 13.4618C55.3917 10.0808 53.7762 6.23484 50.7907 4.60895C49.7628 4.04923 49.628 4.02026 48.0478 4.02026H46.386L46.0587 3.02712C45.8787 2.48093 45.5102 1.7553 45.2399 1.4146C44.6071 0.61734 43.4019 -0.00494046 42.5 2.95632e-05C41.9803 0.00277164 38.2042 1.43825 27.6578 5.64203ZM43.412 3.52052C43.6834 3.90201 46.3529 12.4799 46.8265 14.4924C47.3328 16.6429 47.2931 20.0746 46.7356 22.3572C46.4173 23.6609 45.4728 25.9406 44.8063 27.0148C44.3942 27.6788 41.5592 31.4253 40.1456 33.1739C39.8575 33.5304 39.8614 33.5598 40.4181 35.2041C40.7289 36.1218 40.9236 36.9292 40.8509 36.9986C40.6686 37.1722 36.4349 39.0985 36.3774 39.0339C36.352 39.0053 36.054 38.2106 35.7152 37.268L35.0993 35.5542L32.2549 35.2656C28.7364 34.9086 27.5726 34.7071 26.3442 34.2418C22.9147 32.9432 20.0538 30.3484 18.438 27.0709C17.7693 25.7148 14.1524 15.5977 14.1524 15.0835C14.1524 14.3653 14.8103 13.9634 18.1799 12.6232C20.0117 11.8947 26.1111 9.45695 31.7341 7.20605C37.476 4.90767 42.2076 3.10561 42.5275 3.09567C42.9669 3.08179 43.1692 3.17896 43.412 3.52052ZM49.497 7.02456C49.8097 7.1207 50.4157 7.54761 50.8437 7.97349C52.1104 9.23347 52.5641 11.1094 52.0253 12.8588C51.7614 13.7159 49.958 16.3793 49.7904 16.1598C49.7304 16.0811 49.5997 15.4597 49.4998 14.7786C49.3998 14.0976 48.8725 12.0347 48.3277 10.1942L47.3373 6.84803L48.1329 6.84906C48.5706 6.84958 49.1844 6.92858 49.497 7.02456ZM38.8598 7.8854C38.3486 8.25267 37.9319 8.61291 37.9338 8.68591C37.9356 8.75909 38.1889 9.35875 38.4968 10.0186C40.202 13.6734 40.8855 17.8925 40.253 20.8601C39.9811 22.1358 39.2748 23.7439 38.6285 24.5583C38.3723 24.8812 38.1627 25.2148 38.1627 25.2998C38.1627 25.3848 38.5464 25.8738 39.0155 26.3862L39.8684 27.318L40.3709 26.6596C43.5416 22.5053 43.9348 17.0054 41.5277 10.4736C40.8602 8.66209 40.123 7.17828 39.9034 7.20433C39.8406 7.2117 39.371 7.51813 38.8598 7.8854ZM14.4626 24.2537C15.6853 27.5062 15.971 28.1369 16.9662 29.7814L17.725 31.0352L17.0616 30.9444C16.697 30.8944 15.9803 30.8078 15.4691 30.7521C13.396 30.5264 12.0176 29.5705 11.3723 27.911C10.5493 25.7943 10.847 23.8501 12.2284 22.3219C12.6925 21.8085 13.154 21.4184 13.2541 21.4554C13.354 21.4923 13.8979 22.7516 14.4626 24.2537ZM51.2359 36.1341C51.4751 36.4267 52.6214 39.4142 52.5299 39.5069C52.5088 39.5282 51.167 40.025 49.5482 40.6108C47.9295 41.1965 46.539 41.7443 46.4582 41.8279C46.2669 42.0264 46.9444 44.3803 47.1929 44.3803C47.2934 44.3803 48.6915 43.9109 50.2997 43.3371C51.9078 42.7633 53.2807 42.3583 53.3507 42.4373C53.5747 42.6898 54.8686 46.6896 54.7624 46.801C54.7061 46.86 53.3532 47.387 51.7556 47.972C50.1583 48.5573 48.8521 49.0488 48.8532 49.0646C48.8651 49.2274 49.5904 51.5962 49.6478 51.66C49.6901 51.7068 51.0744 51.2458 52.7238 50.6356C54.3732 50.0255 55.7493 49.5556 55.7815 49.5912C55.8916 49.7131 57.2161 53.6677 57.2161 53.8747C57.2161 53.9916 55.9872 54.52 54.389 55.0905C52.8341 55.6456 51.5324 56.1241 51.4963 56.1537C51.3667 56.2608 52.1626 58.7762 52.3262 58.7762C52.4182 58.7762 53.7009 58.3135 55.1767 57.7479C56.6524 57.1824 57.9539 56.7196 58.069 56.7196C58.3171 56.7196 58.92 58.4089 58.92 59.1044C58.92 59.3721 58.8148 59.6878 58.6861 59.8058C58.5575 59.9241 56.0753 61.3217 53.1702 62.9118C49.165 65.1041 47.7521 65.8005 47.3241 65.7937C47.0138 65.7887 44.9184 65.538 42.6678 65.2367L38.5755 64.6888L36.1945 56.8053L33.8134 48.9218L34.2778 46.2015C34.5333 44.7054 34.8325 43.3307 34.943 43.1467C35.229 42.6704 49.6794 35.8245 50.4149 35.8169C50.7687 35.8133 51.0682 35.929 51.2359 36.1341ZM33.7651 57.9366C34.9216 61.7445 35.8789 64.9598 35.8923 65.0813C35.9197 65.3313 25.754 70.1339 25.596 69.9455C25.4592 69.7826 21.2339 55.6824 21.3006 55.6118C21.3934 55.5133 24.1185 54.3203 24.1497 54.3645C24.1656 54.3873 24.8949 56.7967 25.7703 59.7188C26.6456 62.6408 27.3754 65.0508 27.3921 65.0744C27.4392 65.1407 29.5509 64.4021 29.6804 64.2741C29.7436 64.2115 29.064 61.7356 28.1701 58.7721C27.2761 55.8086 26.5448 53.3325 26.5448 53.2699C26.5448 53.1544 31.5444 50.8883 31.6207 50.9691C31.6435 50.9933 32.6084 54.1287 33.7651 57.9366ZM52.332 69.92C52.8714 71.2845 53.2672 72.4489 53.2118 72.5075C53.068 72.6597 48.8065 74.2083 48.7387 74.133C48.6577 74.0434 47.1472 69.24 47.1472 69.0722C47.1472 68.9952 47.4435 68.8928 47.8056 68.8444C48.1676 68.7961 49.0564 68.4405 49.7806 68.0542C50.5048 67.6679 51.1545 67.3714 51.2245 67.3954C51.2945 67.4194 51.7928 68.5555 52.332 69.92ZM60.9748 75.399C61.1908 75.587 61.4416 75.9755 61.532 76.2626C61.6787 76.7286 61.6597 76.8004 61.3539 76.9322C61.1654 77.0133 57.5067 78.6297 53.2232 80.5243C48.9398 82.4189 45.3785 83.9691 45.3091 83.9691C45.1071 83.9691 44.8238 83.1435 44.8213 82.5471C44.8193 82.0633 45.0904 81.7084 47.1062 79.5555L49.3933 77.113L52.1816 76.0976L54.9699 75.0823L57.776 75.0698C60.3546 75.0583 60.6141 75.0851 60.9748 75.399Z" fill="url(#paint0_linear_236_713)"/>
<defs>
<linearGradient id="paint0_linear_236_713" x1="8.8387" y1="8.76995" x2="55.3311" y2="85.8722" gradientUnits="userSpaceOnUse">
<stop stop-color="#479CBB"/>
<stop offset="1" stop-color="#4E81BA"/>
</linearGradient>
</defs>
</svg>
