<svg width="76" height="75" viewBox="0 0 76 75" fill="none" xmlns="http://www.w3.org/2000/svg">
<rect x="0.0948486" width="75" height="75" rx="4" fill="#E7F2FF"/>
<path d="M51.9243 45.9255C50.7353 44.7357 49.3461 43.7645 47.8203 43.0566C49.972 41.3134 51.3448 38.6535 51.3448 35.6706C51.3448 30.4078 46.9558 26.0901 41.6928 26.1709C36.5106 26.2516 32.3354 30.4742 32.3354 35.6706C32.3354 38.6535 33.7129 41.3134 35.8599 43.0566C34.3337 43.764 32.9444 44.7352 31.7559 45.9255C29.1624 48.5237 27.6899 51.9531 27.5949 55.6105C27.5936 55.6612 27.6025 55.7116 27.6211 55.7588C27.6396 55.806 27.6674 55.8491 27.7028 55.8854C27.7382 55.9217 27.7805 55.9505 27.8273 55.9702C27.874 55.9899 27.9242 56 27.9749 56H30.6349C30.8391 56 31.0101 55.8385 31.0149 55.6343C31.1051 52.8793 32.2214 50.3002 34.1831 48.3432C35.187 47.3341 36.381 46.534 37.6962 45.9894C39.0113 45.4447 40.4214 45.1664 41.8448 45.1703C44.7376 45.1703 47.4593 46.296 49.5065 48.3432C51.4635 50.3002 52.5798 52.8793 52.6748 55.6343C52.6795 55.8385 52.8505 56 53.0547 56H55.7147C55.7654 56 55.8156 55.9899 55.8624 55.9702C55.9091 55.9505 55.9514 55.9217 55.9868 55.8854C56.0223 55.8491 56.05 55.806 56.0686 55.7588C56.0871 55.7116 56.096 55.6612 56.0947 55.6105C55.9997 51.9531 54.5272 48.5237 51.9243 45.9255ZM41.8448 41.7504C40.2203 41.7504 38.6908 41.1187 37.5461 39.9692C36.9716 39.3993 36.5178 38.7194 36.2118 37.9703C35.9057 37.2211 35.7537 36.418 35.7649 35.6089C35.7791 34.0509 36.4014 32.5452 37.4891 31.429C38.6291 30.2605 40.1538 29.6098 41.7831 29.5908C43.3933 29.5765 44.956 30.2035 46.1055 31.3292C47.2835 32.4834 47.9295 34.0271 47.9295 35.6706C47.9295 37.295 47.2978 38.8198 46.1483 39.9692C45.5843 40.5359 44.9136 40.985 44.1749 41.2908C43.4363 41.5965 42.6443 41.7527 41.8448 41.7504ZM29.9461 36.9246C29.9034 36.5113 29.8796 36.0933 29.8796 35.6706C29.8796 34.9154 29.9509 34.1791 30.0839 33.4619C30.1171 33.2909 30.0269 33.1152 29.8701 33.0439C29.2241 32.7542 28.6304 32.3552 28.1174 31.8517C27.5129 31.2656 27.0373 30.5599 26.7207 29.7797C26.4042 28.9995 26.2538 28.1619 26.2792 27.3203C26.3219 25.7956 26.9347 24.3469 28.0034 23.2545C29.1766 22.0527 30.7536 21.3973 32.4304 21.4163C33.9456 21.4305 35.4086 22.0147 36.5154 23.0502C36.8906 23.4017 37.2136 23.7912 37.4843 24.2092C37.5793 24.3564 37.7646 24.4182 37.9261 24.3612C38.7621 24.0714 39.6456 23.8672 40.5528 23.7722C40.8188 23.7437 40.9708 23.4587 40.8521 23.2212C39.3083 20.1671 36.1544 18.0581 32.5064 18.0011C27.2387 17.9204 22.8497 22.238 22.8497 27.4961C22.8497 30.479 24.2224 33.1389 26.3742 34.8821C24.8637 35.5803 23.4719 36.5446 22.2654 37.751C19.6625 40.3492 18.19 43.7786 18.095 47.4408C18.0937 47.4914 18.1026 47.5419 18.1211 47.5891C18.1396 47.6363 18.1674 47.6793 18.2029 47.7156C18.2383 47.7519 18.2806 47.7807 18.3273 47.8004C18.3741 47.8201 18.4243 47.8303 18.475 47.8302H21.1397C21.3439 47.8302 21.5149 47.6687 21.5197 47.4645C21.6099 44.7096 22.7262 42.1304 24.6879 40.1735C26.0844 38.777 27.7944 37.808 29.6611 37.3378C29.8464 37.2903 29.9699 37.1146 29.9461 36.9246Z" fill="#001833"/>
</svg>
